<?xml version="1.0" encoding="UTF-8" standalone="no"?>
<!-- Created with Inkscape (http://www.inkscape.org/) -->

<svg
   version="1.1"
   id="svg2"
   xml:space="preserve"
   width="816"
   height="816"
   viewBox="0 0 816 816"
   sodipodi:docname="earth-vectorportal.eps"
   xmlns:inkscape="http://www.inkscape.org/namespaces/inkscape"
   xmlns:sodipodi="http://sodipodi.sourceforge.net/DTD/sodipodi-0.dtd"
   xmlns="http://www.w3.org/2000/svg"
   xmlns:svg="http://www.w3.org/2000/svg"><defs
     id="defs6"><clipPath
       clipPathUnits="userSpaceOnUse"
       id="clipPath26"><path
         d="m 3456.27,3439.67 c 0,-575.8 -466.78,-1042.57 -1042.57,-1042.57 -575.8,0 -1042.58,466.77 -1042.58,1042.57 0,575.79 466.78,1042.57 1042.58,1042.57 575.79,0 1042.57,-466.78 1042.57,-1042.57"
         id="path24" /></clipPath></defs><sodipodi:namedview
     id="namedview4"
     pagecolor="#ffffff"
     bordercolor="#666666"
     borderopacity="1.0"
     inkscape:pageshadow="2"
     inkscape:pageopacity="0.0"
     inkscape:pagecheckerboard="0" /><g
     id="g8"
     inkscape:groupmode="layer"
     inkscape:label="ink_ext_XXXXXX"
     transform="matrix(1.3333333,0,0,-1.3333333,0,816)"><g
       id="g10"
       transform="scale(0.1)"><path
         d="M 0,0 H 6120 V 6120 H 0 Z"
         style="fill:#ffffff;fill-opacity:1;fill-rule:nonzero;stroke:none"
         id="path12" /><path
         d="M 1214.8,3515.33 C 1078.29,2826.1 636.91,2138.72 995.016,1466.65 1348.98,802.352 1999.14,482.871 2659.03,978.48 c 329.54,247.5 336.1,564.58 540.06,873.31 228.61,346.02 444.97,359.71 845.56,390.96 706.36,55.11 1464.1,127.16 1563.8,1001.98 72.73,638.21 -388.93,1316.27 -1035.92,1376.66 -252.73,23.59 -469.87,0.78 -670.98,-22.04 -419.08,-47.53 -768.59,-95.07 -1225.54,277.27 -435.69,355.01 -1072.12,890.76 -1629.2,396.93 C 377.25,4680 1335.69,4125.6 1214.8,3515.33"
         style="fill:#2e3184;fill-opacity:1;fill-rule:nonzero;stroke:none"
         id="path14" /><path
         d="m 3456.27,3439.67 c 0,-575.8 -466.78,-1042.57 -1042.57,-1042.57 -575.8,0 -1042.58,466.77 -1042.58,1042.57 0,575.79 466.78,1042.57 1042.58,1042.57 575.79,0 1042.57,-466.78 1042.57,-1042.57"
         style="fill:#68a2dc;fill-opacity:1;fill-rule:nonzero;stroke:none"
         id="path16" /><path
         d="m 2413.7,4457.24 c -561.1,0 -1017.58,-456.48 -1017.58,-1017.57 0,-561.1 456.48,-1017.57 1017.58,-1017.57 561.09,0 1017.57,456.47 1017.57,1017.57 0,561.09 -456.48,1017.57 -1017.57,1017.57 m 0,-2085.14 c -588.67,0 -1067.58,478.91 -1067.58,1067.57 0,588.66 478.91,1067.57 1067.58,1067.57 588.66,0 1067.57,-478.91 1067.57,-1067.57 0,-588.66 -478.91,-1067.57 -1067.57,-1067.57"
         style="fill:#1f1f2e;fill-opacity:1;fill-rule:nonzero;stroke:none"
         id="path18" /><g
         id="g20"><g
           id="g22"
           clip-path="url(#clipPath26)"><path
             d="m 3554.15,3957.19 c -87.72,-331.53 -659.08,-215.49 -829.26,-120.63 -321.53,179.22 -275.09,35.27 -199.32,-262.39 43.57,-171.16 -61.84,-189.71 -108.68,-335.58 -67.8,-211.23 34.1,-162.03 182.3,-127.91 214.72,49.43 230.23,23.05 257.01,-177.94 22.88,-171.71 23.8,-344.39 60.94,-513.94 224.72,108.11 239.1,278.73 282.16,497.32 15.81,80.33 21.09,147.51 90.58,202.27 142.65,112.41 94.64,-30.76 174.34,-42.39 31.05,-4.53 19.14,-57.77 66.63,-47.67 86.46,18.39 118.34,221.25 131.26,281.81 41.15,192.85 61.52,442.88 -64.76,590.46 l -43.2,56.59"
             style="fill:#a6da49;fill-opacity:1;fill-rule:nonzero;stroke:none"
             id="path28" /><path
             d="m 2029.96,3999.79 c 176.88,153.75 79.22,-179.11 27.7,-253.08 -44.7,-64.19 -151.18,-162.24 -209.42,-195.47 -123.13,-70.26 -377.64,-89.48 -329.51,-370.34 20.2,-117.95 90.08,-108.9 176.06,-99.86 59.51,6.26 126.73,12.52 190.54,-23.32 217.73,-122.27 127.1,-436.72 293,-606.09 -491.49,-267.15 -1103.31,252.92 -1052.08,921.49 24.64,321.64 300,578.99 477.66,790.36 325.18,386.87 223.16,79.32 426.05,-163.69"
             style="fill:#a6da49;fill-opacity:1;fill-rule:nonzero;stroke:none"
             id="path30" /><path
             d="m 2749.57,4104.82 c -16.06,-14.07 -32.98,-29.53 -37.17,-49.78 -4.19,-20.27 6.88,-42.51 26.12,-52.48 3.08,-20.16 19.19,-36.92 38.15,-46.79 18.96,-9.86 40.65,-13.89 62,-17.43 10.91,-1.81 23.01,-3.31 32.32,2.33 7.34,4.45 11.24,12.4 14.44,20.03 9.48,22.6 16.15,47.2 11.58,71.12 -6.45,33.77 -33.72,60.14 -59.7,84.26 -35.95,33.4 -56.44,16.14 -87.74,-11.26"
             style="fill:#a6da49;fill-opacity:1;fill-rule:nonzero;stroke:none"
             id="path32" /></g></g><path
         d="m 3210.05,4072.47 c -190.3,158.45 -427.76,240.64 -667.29,240.64 -206.07,0 -413.68,-60.85 -594.02,-186.33 -34.28,69.47 -53.86,133.56 -75.94,174.49 156.78,98.77 342.3,155.97 540.9,155.97 322.12,0 609.76,-150.45 796.35,-384.77"
         style="fill:#92c2ea;fill-opacity:1;fill-rule:nonzero;stroke:none"
         id="path34" /><path
         d="m 1428.11,3098.82 c -44.02,127.25 -62.29,260.44 -55.75,392.01 -0.82,-16.95 -1.24,-34.01 -1.24,-51.16 0,-119.35 20.07,-234.06 56.99,-340.85 m 49.83,801.07 c 61.65,125.6 149.56,240.48 262.52,335.87 -108.98,-92.25 -198.77,-206.51 -262.52,-335.87 m 1745.54,161.2 c -4.44,3.82 -8.94,7.63 -13.43,11.38 -186.59,234.32 -474.23,384.77 -796.35,384.77 -198.6,0 -384.12,-57.2 -540.9,-155.97 -4.36,8.09 -8.82,15.28 -13.51,21.43 170.62,107.4 362.77,159.59 553.65,159.59 293.67,0 584.31,-123.59 788.64,-359.78 -9.8,11.32 -19.79,22.38 -29.97,33.18 19.09,-30.9 36.36,-62.46 51.87,-94.6"
         style="fill:#5e5f6c;fill-opacity:1;fill-rule:nonzero;stroke:none"
         id="path36" /><path
         d="m 1578.57,2815.54 c -66.15,88.46 -116.13,184.04 -150.46,283.28 -36.92,106.79 -56.99,221.5 -56.99,340.85 0,17.15 0.42,34.21 1.24,51.16 7.01,141.3 42.62,280.79 105.58,409.06 63.75,129.36 153.54,243.62 262.52,335.87 12.54,10.59 25.36,20.91 38.52,31.01 26.16,20.07 52.95,38.71 80.31,55.93 4.69,-6.15 9.15,-13.34 13.51,-21.43 22.08,-40.93 41.66,-105.02 75.94,-174.49 -13.46,-9.37 -26.78,-19.1 -39.93,-29.19 -398.81,-306.04 -515.07,-843.78 -304.9,-1279.34 -27.04,23.3 -53.06,48.15 -77.96,74.58 16.24,-26.29 33.77,-52.08 52.62,-77.29"
         style="fill:#c1e477;fill-opacity:1;fill-rule:nonzero;stroke:none"
         id="path38" /><path
         d="m 3254.27,4056.44 c -4.41,6 -8.91,12 -13.47,17.94 v 0 0 c 4.56,-5.95 9.05,-11.93 13.47,-17.94 m -14.05,18.7 c -0.03,0.03 -0.05,0.05 -0.07,0.08 0.02,-0.03 0.04,-0.05 0.07,-0.08 m -0.6,0.78 c -0.02,0.02 -0.04,0.04 -0.05,0.06 0.02,-0.03 0.03,-0.04 0.05,-0.06 m -33.41,41.2 c -0.01,0 -0.01,0 -0.01,0.01 l 0.01,-0.01 m -0.63,0.73 c -0.01,0.01 -0.01,0.01 -0.02,0.02 l 0.02,-0.02 m -1.28,1.49 c -0.02,0.02 -0.04,0.05 -0.06,0.07 0.03,-0.03 0.04,-0.04 0.06,-0.07 m -0.57,0.67 c -0.09,0.1 -0.17,0.19 -0.25,0.29 0.09,-0.1 0.16,-0.18 0.25,-0.29 m -0.58,0.67 c -0.1,0.12 -0.2,0.24 -0.3,0.35 0.09,-0.1 0.21,-0.25 0.3,-0.35 m -0.57,0.66 c -0.11,0.14 -0.23,0.27 -0.34,0.4 0.11,-0.13 0.23,-0.27 0.34,-0.4 m -0.55,0.64 c -0.13,0.15 -0.26,0.3 -0.4,0.46 0.14,-0.16 0.27,-0.31 0.4,-0.46"
         style="fill:#5e5f6c;fill-opacity:1;fill-rule:nonzero;stroke:none"
         id="path40" /><path
         d="m 2413.7,2422.1 c -81.92,0 -161.65,9.74 -238.01,28.1 0.87,0.47 1.77,0.96 2.64,1.43 -36.97,37.74 -61.19,82.67 -78.93,131.09 61.08,-10.96 123.09,-16.5 185.23,-16.5 204.64,0 410.76,59.99 590.22,183.7 5.86,-68.95 11.51,-137.81 20.7,-206.33 -143.51,-77.48 -307.64,-121.49 -481.85,-121.49 m 753.94,334.87 c 11.37,49.7 20.56,102.84 31.66,159.15 15.81,80.33 21.09,147.51 90.58,202.27 39.77,31.34 64.72,42.81 81.75,42.81 7.79,0 13.93,-2.4 19.06,-6.4 -43.71,-149.7 -120.96,-285.2 -223.05,-397.83 m 149.08,995.22 c -13.79,100.06 -42.24,198.86 -85.8,293.15 61.72,-83.06 111.09,-175.8 145.38,-275.5 -18.99,-7.14 -38.94,-12.98 -59.58,-17.65"
         style="fill:#4e7ec8;fill-opacity:1;fill-rule:nonzero;stroke:none"
         id="path42" /><path
         d="m 2414.46,2397.04 c -92.13,0 -183.97,12.17 -272.92,36.15 11.43,5.26 22.83,10.93 34.15,17.01 76.36,-18.36 156.09,-28.1 238.01,-28.1 174.21,0 338.34,44.01 481.85,121.49 1.2,-8.9 2.45,-17.8 3.77,-26.68 -152.65,-80.57 -319.24,-119.87 -484.86,-119.87 m -462.8,107.77 c -125.08,61.71 -239.5,149.48 -334.51,262.16 0.7,-0.82 1.42,-1.68 2.12,-2.5 11.87,-13.99 24.05,-27.6 36.51,-40.82 -0.07,0.11 -0.13,0.21 -0.2,0.32 84.5,-89.47 184.65,-163.98 296.08,-219.16 m 1134.37,138.01 c 23.88,20.17 46.81,41.36 68.78,63.56 4.66,16.45 8.87,33.3 12.83,50.59 102.09,112.63 179.34,248.13 223.05,397.83 7.59,-5.91 13,-15.31 18.36,-25.61 -57.25,-184.13 -165.93,-354.04 -323.02,-486.37 m 369.23,750.51 c 0.67,15.36 1.01,30.8 1.01,46.34 0,112.35 -17.76,220.51 -50.65,321.91 38.91,-119.92 55.19,-244.79 49.64,-368.25 m -78.96,376.51 c -34.29,99.7 -83.66,192.44 -145.38,275.5 -2.43,5.25 -4.92,10.52 -7.44,15.75 27.04,-23.3 53.05,-48.15 77.95,-74.58 v 0 0 c -14.66,23.74 -30.37,47.07 -47.16,69.93 63.68,-86.71 111.97,-180.09 145.36,-276.96 -7.61,-3.45 -15.37,-6.65 -23.33,-9.64"
         style="fill:#181c2a;fill-opacity:1;fill-rule:nonzero;stroke:none"
         id="path44" /><path
         d="m 2899.32,2516.91 c -1.32,8.88 -2.57,17.78 -3.77,26.68 -9.19,68.52 -14.84,137.38 -20.7,206.33 14.75,10.17 29.35,20.79 43.72,31.82 308.17,236.48 447.64,611.33 398.15,970.45 20.64,4.67 40.59,10.51 59.58,17.65 7.96,2.99 15.72,6.19 23.33,9.64 2.05,-5.95 4.05,-11.93 5.99,-17.9 32.89,-101.4 50.65,-209.56 50.65,-321.91 0,-15.54 -0.34,-30.98 -1.01,-46.34 -4.03,-89.54 -19.54,-178.37 -46.21,-264.14 -5.36,10.3 -10.77,19.7 -18.36,25.61 -5.13,4 -11.27,6.4 -19.06,6.4 -17.03,0 -41.98,-11.47 -81.75,-42.81 -69.49,-54.76 -74.77,-121.94 -90.58,-202.27 -11.1,-56.31 -20.29,-109.45 -31.66,-159.15 -3.96,-17.29 -8.17,-34.14 -12.83,-50.59 -21.97,-22.2 -44.9,-43.39 -68.78,-63.56 -12.24,-10.31 -24.8,-20.42 -37.63,-30.26 -47.73,-36.63 -97.6,-68.48 -149.08,-95.65"
         style="fill:#60be48;fill-opacity:1;fill-rule:nonzero;stroke:none"
         id="path46" /><path
         d="m 2141.54,2433.19 c -65.18,17.57 -128.8,41.49 -189.88,71.62 -111.43,55.18 -211.58,129.69 -296.08,219.16 -19,30.79 -36.21,62.25 -51.67,94.28 143.71,-123.85 315.57,-203.25 495.49,-235.53 17.74,-48.42 41.96,-93.35 78.93,-131.09 -0.87,-0.47 -1.77,-0.96 -2.64,-1.43 -11.32,-6.08 -22.72,-11.75 -34.15,-17.01 m -522.27,331.28 c -0.7,0.82 -1.42,1.68 -2.12,2.5 -10.43,12.37 -20.61,25.03 -30.56,37.99 -2.7,3.52 -5.37,7.04 -8.02,10.58 2.64,-3.53 5.32,-7.07 8.02,-10.58 10.62,-13.84 21.51,-27.33 32.68,-40.49"
         style="fill:#60be48;fill-opacity:1;fill-rule:nonzero;stroke:none"
         id="path48" /><path
         d="m 3240.8,4074.38 c -0.19,0.25 -0.39,0.51 -0.58,0.76 0.19,-0.26 0.39,-0.51 0.58,-0.76 m -0.65,0.84 c -0.17,0.22 -0.36,0.47 -0.53,0.7 0.17,-0.23 0.35,-0.47 0.53,-0.7 m -0.58,0.76 c -10.85,14.08 -21.95,27.76 -33.36,41.14 11.4,-13.36 22.52,-27.07 33.36,-41.14 m -33.37,41.15 c -0.21,0.24 -0.42,0.49 -0.62,0.72 0.2,-0.24 0.41,-0.48 0.62,-0.72 m -0.64,0.74 c -0.43,0.5 -0.83,0.97 -1.26,1.47 0.42,-0.49 0.84,-0.98 1.26,-1.47 m -1.32,1.54 c -0.16,0.19 -0.35,0.42 -0.51,0.6 0.17,-0.2 0.34,-0.4 0.51,-0.6 m -0.76,0.89 c -0.11,0.13 -0.21,0.25 -0.33,0.38 0.11,-0.13 0.22,-0.25 0.33,-0.38 m -0.63,0.73 c -0.09,0.11 -0.18,0.21 -0.27,0.31 0.09,-0.1 0.18,-0.2 0.27,-0.31 m -0.61,0.71 c -0.07,0.08 -0.14,0.16 -0.21,0.24 0.07,-0.08 0.14,-0.16 0.21,-0.24 m -0.61,0.7 c -0.02,0.03 -0.03,0.04 -0.05,0.07 0.01,-0.03 0.03,-0.05 0.05,-0.07"
         style="fill:#181c2a;fill-opacity:1;fill-rule:nonzero;stroke:none"
         id="path50" /><path
         d="m 1655.78,2723.65 c -12.46,13.22 -24.64,26.83 -36.51,40.82 11.76,-13.82 23.86,-27.31 36.31,-40.5 0.07,-0.11 0.13,-0.21 0.2,-0.32"
         style="fill:#3a4d65;fill-opacity:1;fill-rule:nonzero;stroke:none"
         id="path52" /><path
         d="m 1655.58,2723.97 c -12.45,13.19 -24.55,26.68 -36.31,40.5 -11.17,13.16 -22.06,26.65 -32.68,40.49 -2.7,3.51 -5.38,7.05 -8.02,10.58 -18.85,25.21 -36.38,51 -52.62,77.29 24.9,-26.43 50.92,-51.28 77.96,-74.58 15.46,-32.03 32.67,-63.49 51.67,-94.28"
         style="fill:#73c674;fill-opacity:1;fill-rule:nonzero;stroke:none"
         id="path54" /><path
         d="m 3301.43,3986.51 c -24.9,26.43 -50.91,51.28 -77.95,74.58 -15.51,32.14 -32.78,63.7 -51.87,94.6 10.18,-10.8 20.17,-21.86 29.97,-33.18 0.02,-0.03 0.03,-0.04 0.05,-0.07 0.14,-0.16 0.27,-0.31 0.4,-0.46 0.07,-0.08 0.14,-0.16 0.21,-0.24 0.11,-0.13 0.23,-0.26 0.34,-0.4 0.09,-0.1 0.18,-0.2 0.27,-0.31 0.1,-0.11 0.2,-0.23 0.3,-0.35 0.12,-0.13 0.22,-0.25 0.33,-0.38 0.08,-0.1 0.16,-0.19 0.25,-0.29 0.16,-0.18 0.35,-0.41 0.51,-0.6 0.02,-0.02 0.04,-0.05 0.06,-0.07 0.43,-0.5 0.83,-0.97 1.26,-1.47 0.01,-0.01 0.01,-0.01 0.02,-0.02 0.2,-0.23 0.41,-0.48 0.62,-0.72 0,-0.01 0,-0.01 0.01,-0.01 11.41,-13.38 22.51,-27.06 33.36,-41.14 0.01,-0.02 0.03,-0.04 0.05,-0.06 0.17,-0.23 0.36,-0.48 0.53,-0.7 0.02,-0.03 0.04,-0.05 0.07,-0.08 0.19,-0.25 0.39,-0.51 0.58,-0.76 v 0 c 4.56,-5.94 9.06,-11.94 13.47,-17.94 16.79,-22.86 32.5,-46.19 47.16,-69.93"
         style="fill:#3a4d65;fill-opacity:1;fill-rule:nonzero;stroke:none"
         id="path56" /><path
         d="m 1823.56,3344.76 c -28.25,0 -54.26,7.13 -76.36,22.19 -35.26,24.04 -55.38,64.78 -60.83,114.56 57.55,26.17 118.04,44.72 161.87,69.73 58.24,33.23 164.72,131.28 209.42,195.47 22.12,31.75 52.74,111.19 66.49,179.38 0.98,-0.62 1.95,-1.26 2.91,-1.92 91.7,-62.51 81.01,-237.92 -23.89,-391.8 -79.62,-116.79 -190.64,-187.61 -279.61,-187.61"
         style="fill:#92c2ea;fill-opacity:1;fill-rule:nonzero;stroke:none"
         id="path58" /><path
         d="m 1686.37,3481.51 c -8.71,79.68 20.16,182.54 84.72,277.24 79.62,116.79 190.64,187.61 279.62,187.61 27.01,0 51.98,-6.52 73.44,-20.27 -13.75,-68.19 -44.37,-147.63 -66.49,-179.38 -44.7,-64.19 -151.18,-162.24 -209.42,-195.47 -43.83,-25.01 -104.32,-43.56 -161.87,-69.73"
         style="fill:#c1e477;fill-opacity:1;fill-rule:nonzero;stroke:none"
         id="path60" /><path
         d="m 2413.7,4457.24 c -561.1,0 -1017.58,-456.48 -1017.58,-1017.57 0,-561.1 456.48,-1017.57 1017.58,-1017.57 561.09,0 1017.57,456.47 1017.57,1017.57 0,561.09 -456.48,1017.57 -1017.57,1017.57 z m 0,-2085.14 c -588.67,0 -1067.58,478.91 -1067.58,1067.57 0,588.66 478.91,1067.57 1067.58,1067.57 588.66,0 1067.57,-478.91 1067.57,-1067.57 0,-588.66 -478.91,-1067.57 -1067.57,-1067.57"
         style="fill:#1f1f2e;fill-opacity:1;fill-rule:nonzero;stroke:none"
         id="path62" /><path
         d="m 4612.47,2478.08 c 0,-209.78 -170.05,-379.84 -379.82,-379.84 -209.78,0 -379.84,170.06 -379.84,379.84 0,209.77 170.06,379.82 379.84,379.82 209.77,0 379.82,-170.05 379.82,-379.82"
         style="fill:#757390;fill-opacity:1;fill-rule:nonzero;stroke:none"
         id="path64" /><path
         d="m 4232.65,2832.9 c -195.66,0 -354.84,-159.17 -354.84,-354.82 0,-195.66 159.18,-354.84 354.84,-354.84 195.65,0 354.82,159.18 354.82,354.84 0,195.65 -159.17,354.82 -354.82,354.82 m 0,-759.66 c -223.23,0 -404.84,181.61 -404.84,404.84 0,223.22 181.61,404.82 404.84,404.82 223.22,0 404.82,-181.6 404.82,-404.82 0,-223.23 -181.6,-404.84 -404.82,-404.84"
         style="fill:#1f1f2e;fill-opacity:1;fill-rule:nonzero;stroke:none"
         id="path66" /><path
         d="m 4187.82,2636.72 c -23.51,0 -46.47,11.94 -59.47,33.5 -19.72,32.74 -9.13,75.4 23.58,95.12 11.17,6.73 23.48,9.93 35.65,9.93 23.51,0 46.47,-11.95 59.47,-33.51 v -0.01 c 19.72,-32.73 9.13,-75.39 -23.58,-95.11 -11.17,-6.72 -23.48,-9.92 -35.65,-9.92 m -0.2,118.55 c -8.66,0 -17.42,-2.27 -25.36,-7.06 -23.28,-14.03 -30.81,-44.38 -16.78,-67.66 9.25,-15.34 25.59,-23.84 42.31,-23.84 8.66,0 17.42,2.28 25.35,7.06 23.28,14.03 30.8,44.38 16.78,67.67 -9.25,15.33 -25.58,23.83 -42.3,23.83"
         style="fill:#a09fac;fill-opacity:1;fill-rule:nonzero;stroke:none"
         id="path68" /><path
         d="m 4282.78,2568.29 c -13.63,0 -26.93,6.94 -34.48,19.46 -11.45,19.02 -5.32,43.73 13.69,55.18 6.49,3.91 13.65,5.77 20.71,5.77 13.63,0 26.92,-6.93 34.47,-19.46 11.45,-19.02 5.32,-43.71 -13.69,-55.18 -6.49,-3.91 -13.64,-5.77 -20.7,-5.77"
         style="fill:#a09fac;fill-opacity:1;fill-rule:nonzero;stroke:none"
         id="path70" /><path
         d="m 4357.63,2215.33 c -11.8,0 -23.18,3.78 -32.28,11.62 -22.28,19.22 -22.52,55.62 -0.52,81.15 10.47,12.12 24.41,20.09 39.25,22.42 3.01,0.47 5.98,0.71 8.9,0.71 12.12,0 23.3,-4.04 32.18,-11.7 22.29,-19.21 22.53,-55.6 0.52,-81.13 -13.02,-15.11 -30.96,-23.07 -48.05,-23.07 m 15.23,95.88 c -1.85,0 -3.75,-0.15 -5.67,-0.45 -10.17,-1.59 -19.84,-7.19 -27.21,-15.73 -14.79,-17.17 -15.5,-40.91 -1.56,-52.92 5.36,-4.62 12.13,-6.85 19.28,-6.85 11.39,0 23.73,5.64 32.84,16.2 14.79,17.17 15.5,40.91 1.57,52.92 h -0.01 c -5.2,4.49 -11.88,6.83 -19.24,6.83"
         style="fill:#a09fac;fill-opacity:1;fill-rule:nonzero;stroke:none"
         id="path72" /><path
         d="m 4356.33,2357.37 c -3.58,0 -7.18,1.24 -10.11,3.76 -6.48,5.59 -7.21,15.37 -1.62,21.86 3.06,3.55 7.39,5.38 11.74,5.38 3.59,0 7.19,-1.24 10.11,-3.76 6.49,-5.6 7.21,-15.38 1.63,-21.87 -3.07,-3.55 -7.4,-5.37 -11.75,-5.37"
         style="fill:#a09fac;fill-opacity:1;fill-rule:nonzero;stroke:none"
         id="path74" /><path
         d="m 4461.02,2362.74 c -16.48,0 -33.03,5.67 -46.47,17.24 -29.74,25.66 -33.07,70.71 -7.43,100.47 12.43,14.4 29.72,23.11 48.7,24.51 1.84,0.14 3.68,0.21 5.5,0.21 16.98,0 33.25,-6.08 46.27,-17.3 14.4,-12.42 23.11,-29.71 24.52,-48.68 1.41,-18.97 -4.67,-37.36 -17.1,-51.78 -14.06,-16.31 -33.97,-24.67 -53.99,-24.67 m 0.13,122.43 c -1.28,0 -2.57,-0.05 -3.86,-0.15 -13.65,-1.01 -26.09,-7.28 -35.03,-17.64 -18.43,-21.39 -16.04,-53.81 5.36,-72.25 9.66,-8.32 21.56,-12.4 33.42,-12.41 14.39,0 28.71,6.02 38.83,17.76 8.94,10.36 13.3,23.58 12.3,37.24 -1.02,13.64 -7.28,26.07 -17.65,35 v 0.01 c -9.37,8.09 -21.1,12.44 -33.37,12.44"
         style="fill:#a09fac;fill-opacity:1;fill-rule:nonzero;stroke:none"
         id="path76" /><path
         d="m 4325.9,2686.08 c -12.88,0 -24.43,9.03 -27.11,22.13 -3.08,14.99 6.57,29.63 21.55,32.71 1.88,0.38 3.76,0.57 5.6,0.57 12.88,0 24.42,-9.03 27.11,-22.13 3.07,-14.99 -6.58,-29.63 -21.57,-32.71 -1.87,-0.38 -3.74,-0.57 -5.58,-0.57"
         style="fill:#a09fac;fill-opacity:1;fill-rule:nonzero;stroke:none"
         id="path78" /><path
         d="m 4021.52,2553.16 c -6.78,0 -13.43,1.98 -19.23,5.81 -7.83,5.15 -13.18,13.05 -15.07,22.24 -3.88,18.96 8.37,37.55 27.33,41.45 2.36,0.48 4.71,0.71 7.02,0.71 16.32,0 31.01,-11.45 34.43,-28.05 1.87,-9.19 0.06,-18.55 -5.09,-26.37 -5.17,-7.83 -13.06,-13.18 -22.24,-15.05 -2.38,-0.5 -4.77,-0.74 -7.15,-0.74 m 0.08,40.21 -1.02,-0.11 c -2.75,-0.56 -4.54,-3.26 -3.97,-6.02 0.37,-1.8 1.52,-2.8 2.19,-3.23 0.53,-0.35 1.55,-0.84 2.83,-0.84 0.31,0 0.64,0.03 0.99,0.1 l 0.02,0.01 c 1.79,0.36 2.79,1.53 3.23,2.18 0.43,0.66 1.1,2.03 0.73,3.84 -0.49,2.4 -2.63,4.07 -5,4.07"
         style="fill:#a09fac;fill-opacity:1;fill-rule:nonzero;stroke:none"
         id="path80" /><path
         d="m 4138.76,2233.37 c -39.97,-0.01 -82.36,17.83 -114.58,52.13 -56.33,59.96 -60.52,147.86 -9.34,195.95 21.92,20.58 50.49,30.59 80.42,30.59 39.97,0 82.36,-17.84 114.56,-52.14 27.08,-28.82 43.08,-64.89 45.05,-101.58 2.01,-37.33 -10.67,-70.85 -35.71,-94.37 -21.91,-20.58 -50.48,-30.58 -80.4,-30.58 m -43.46,258.75 c -24.99,0 -48.66,-8.24 -66.77,-25.24 -43.13,-40.54 -38.55,-115.77 10.22,-167.69 28.32,-30.14 65.4,-45.91 99.95,-45.91 24.99,0 48.66,8.24 66.77,25.25 20.66,19.41 31.11,47.37 29.43,78.72 -1.72,31.98 -15.8,63.58 -39.65,88.96 -28.31,30.14 -65.39,45.91 -99.95,45.91"
         style="fill:#a09fac;fill-opacity:1;fill-rule:nonzero;stroke:none"
         id="path82" /><path
         d="m 3909.76,2330.97 c -20.51,44.84 -31.95,94.66 -31.95,147.11 0,195.65 159.18,354.82 354.84,354.82 85.34,0 163.76,-30.29 225.03,-80.68 -55.1,29.12 -116.36,44.06 -178.01,44.06 -80.68,0 -162.01,-25.6 -230.97,-78.52 -121.83,-93.48 -171.29,-246.32 -138.94,-386.79"
         style="fill:#a09fac;fill-opacity:1;fill-rule:nonzero;stroke:none"
         id="path84" /><path
         d="m 3931.31,2246.84 c -127.71,166.41 -96.32,404.86 70.1,532.56 68.95,52.92 150.27,78.52 230.96,78.52 101.87,0 202.73,-40.81 276.41,-119 6.94,-11.24 13.24,-22.75 18.89,-34.46 -21.74,18.74 -45.24,34.67 -69.99,47.76 -61.27,50.39 -139.69,80.68 -225.03,80.68 -195.66,0 -354.84,-159.17 -354.84,-354.82 0,-52.45 11.44,-102.27 31.95,-147.11 6.23,-27.07 15.5,-53.67 27.87,-79.3 -9.85,8.49 -19.34,17.55 -28.41,27.18 6.75,-10.92 14.11,-21.61 22.09,-32.01 m 619.33,438.98 c -5.21,7.97 -10.77,15.81 -16.67,23.49 v 0 0 c 5.9,-7.68 11.46,-15.52 16.67,-23.49 m -17.08,24.02 c -0.03,0.05 -0.07,0.1 -0.11,0.15 0.03,-0.04 0.08,-0.11 0.11,-0.15 m -0.42,0.55 c -0.04,0.05 -0.08,0.1 -0.11,0.15 0.03,-0.04 0.08,-0.11 0.11,-0.15 m -0.44,0.57 c -0.03,0.03 -0.06,0.07 -0.08,0.11 0.03,-0.04 0.05,-0.07 0.08,-0.11 m -0.47,0.6 c -0.01,0.01 -0.02,0.02 -0.02,0.03 0,-0.01 0.02,-0.02 0.02,-0.03"
         style="fill:#5e5f6c;fill-opacity:1;fill-rule:nonzero;stroke:none"
         id="path86" /><path
         d="m 4232.65,2123.24 c -85.35,0 -163.75,30.29 -225.03,80.68 55.1,-29.12 116.36,-44.06 178,-44.06 80.68,0 162.01,25.61 230.96,78.52 121.82,93.48 171.28,246.32 138.95,386.79 20.51,-44.84 31.94,-94.66 31.94,-147.09 0,-195.66 -159.17,-354.84 -354.82,-354.84"
         style="fill:#59587e;fill-opacity:1;fill-rule:nonzero;stroke:none"
         id="path88" /><path
         d="m 4232.92,2098.22 c -114.04,0 -226.82,51.15 -301.61,148.62 v 0 0 c 7.99,-10.4 16.4,-20.29 25.21,-29.62 -6.94,11.24 -13.24,22.75 -18.89,34.45 21.74,-18.73 45.23,-34.67 69.99,-47.75 61.28,-50.39 139.68,-80.68 225.03,-80.68 195.65,0 354.82,159.18 354.82,354.84 0,52.43 -11.43,102.25 -31.94,147.09 -6.23,27.06 -15.49,53.65 -27.86,79.29 9.84,-8.48 19.33,-17.55 28.39,-27.16 v 0 0 c -1.76,2.85 -3.57,5.7 -5.42,8.52 107.86,-164.7 71.98,-387.26 -86.76,-509.08 -68.96,-52.92 -150.27,-78.52 -230.96,-78.52 m 301.05,611.09 c -0.14,0.18 -0.27,0.35 -0.41,0.53 0.14,-0.18 0.28,-0.35 0.41,-0.53 m -0.52,0.68 c -0.11,0.14 -0.2,0.26 -0.31,0.4 0.1,-0.13 0.21,-0.27 0.31,-0.4 m -0.42,0.55 c -0.11,0.14 -0.22,0.27 -0.33,0.42 0.11,-0.14 0.22,-0.28 0.33,-0.42 m -0.41,0.53 c -0.13,0.16 -0.26,0.33 -0.39,0.49 0.13,-0.17 0.26,-0.33 0.39,-0.49 m -0.41,0.52 c -7.46,9.57 -15.28,18.68 -23.43,27.33 -0.01,0.02 -0.01,0.02 -0.01,0.02 8.16,-8.66 15.98,-17.77 23.44,-27.35"
         style="fill:#1a1a27;fill-opacity:1;fill-rule:nonzero;stroke:none"
         id="path90" /><path
         d="m 3956.52,2217.22 c -8.81,9.33 -17.22,19.22 -25.21,29.62 v 0 c -7.98,10.4 -15.34,21.09 -22.09,32.01 9.07,-9.63 18.56,-18.69 28.41,-27.18 5.65,-11.7 11.95,-23.21 18.89,-34.45 m 599.54,460.08 c -9.06,9.61 -18.55,18.68 -28.39,27.16 -5.65,11.71 -11.95,23.22 -18.9,34.48 8.16,-8.67 15.98,-17.78 23.44,-27.35 0,-0.01 0.01,-0.02 0.02,-0.03 0.13,-0.16 0.26,-0.33 0.39,-0.49 0.02,-0.04 0.05,-0.08 0.08,-0.11 0.11,-0.15 0.22,-0.28 0.33,-0.42 0.03,-0.05 0.07,-0.1 0.11,-0.15 0.11,-0.14 0.2,-0.26 0.31,-0.4 0.04,-0.05 0.08,-0.1 0.11,-0.15 0.14,-0.18 0.27,-0.35 0.41,-0.53 v 0 c 5.9,-7.68 11.46,-15.52 16.67,-23.49 1.85,-2.82 3.66,-5.67 5.42,-8.52"
         style="fill:#49485e;fill-opacity:1;fill-rule:nonzero;stroke:none"
         id="path92" /><path
         d="m 4232.65,2832.9 c -195.66,0 -354.84,-159.17 -354.84,-354.82 0,-195.66 159.18,-354.84 354.84,-354.84 195.65,0 354.82,159.18 354.82,354.84 0,195.65 -159.17,354.82 -354.82,354.82 z m 0,-759.66 c -223.23,0 -404.84,181.61 -404.84,404.84 0,223.22 181.61,404.82 404.84,404.82 223.22,0 404.82,-181.6 404.82,-404.82 0,-223.23 -181.6,-404.84 -404.82,-404.84"
         style="fill:#1f1f2e;fill-opacity:1;fill-rule:nonzero;stroke:none"
         id="path94" /><path
         d="m 4166.84,4105.51 c 0,-27.71 -22.47,-50.18 -50.18,-50.18 -27.71,0 -50.18,22.47 -50.18,50.18 0,27.71 22.47,50.18 50.18,50.18 27.71,0 50.18,-22.47 50.18,-50.18"
         style="fill:#ffffff;fill-opacity:1;fill-rule:nonzero;stroke:none"
         id="path96" /><path
         d="m 3876.66,3380.6 c 0,-13.86 -11.24,-25.09 -25.09,-25.09 -13.86,0 -25.09,11.23 -25.09,25.09 0,13.86 11.23,25.09 25.09,25.09 13.85,0 25.09,-11.23 25.09,-25.09"
         style="fill:#ffffff;fill-opacity:1;fill-rule:nonzero;stroke:none"
         id="path98" /><path
         d="m 4511.79,4180.78 c 0,-13.86 -11.23,-25.09 -25.09,-25.09 -13.86,0 -25.09,11.23 -25.09,25.09 0,13.85 11.23,25.08 25.09,25.08 13.86,0 25.09,-11.23 25.09,-25.08"
         style="fill:#ffffff;fill-opacity:1;fill-rule:nonzero;stroke:none"
         id="path100" /><path
         d="m 2239.62,1492.7 c 0,-27.44 -22.24,-49.67 -49.67,-49.67 -27.44,0 -49.67,22.23 -49.67,49.67 0,27.44 22.23,49.67 49.67,49.67 27.43,0 49.67,-22.23 49.67,-49.67"
         style="fill:#ffffff;fill-opacity:1;fill-rule:nonzero;stroke:none"
         id="path102" /><path
         d="m 1497.05,2220.61 c 0,-13.72 -11.12,-24.84 -24.84,-24.84 -13.71,0 -24.83,11.12 -24.83,24.84 0,13.72 11.12,24.84 24.83,24.84 13.72,0 24.84,-11.12 24.84,-24.84"
         style="fill:#ffffff;fill-opacity:1;fill-rule:nonzero;stroke:none"
         id="path104" /><path
         d="m 5272.53,3175.16 c 0,-13.86 -11.23,-25.09 -25.09,-25.09 -13.86,0 -25.09,11.23 -25.09,25.09 0,13.85 11.23,25.09 25.09,25.09 13.86,0 25.09,-11.24 25.09,-25.09"
         style="fill:#ffffff;fill-opacity:1;fill-rule:nonzero;stroke:none"
         id="path106" /><path
         d="m 1472.47,4831.73 c 0,-13.86 -11.23,-25.09 -25.09,-25.09 -13.86,0 -25.09,11.23 -25.09,25.09 0,13.86 11.23,25.09 25.09,25.09 13.86,0 25.09,-11.23 25.09,-25.09"
         style="fill:#ffffff;fill-opacity:1;fill-rule:nonzero;stroke:none"
         id="path108" /></g></g></svg>
